<svg xmlns="http://www.w3.org/2000/svg" viewBox="0 0 368.6 45.2"><defs><style>.a{fill-rule:evenodd;}</style></defs><title>logo</title><path class="a" d="M0,0H15.8a15.79,15.79,0,0,1,4.6,30.9L5.3,35.5v9.6H0V0ZM235.9,0h5.3V19.9h19.5V0H266V45h-5.3V25.1H241.1V45h-5.3c.1-15,.1-30,.1-45ZM332,0h15.8a15.81,15.81,0,0,1,8.7,29l12.1,16.1H362L351.5,31.2l-14.3,4.4v9.6h-5.3V0Zm5.2,5.2V29.9l13.6-4.1a10.47,10.47,0,0,0-3-20.5l-10.6-.1ZM298.9,0a22.5,22.5,0,1,1-22.5,22.5A22.53,22.53,0,0,1,298.9,0Zm0,5.2a17.3,17.3,0,1,0,17.3,17.3A17.31,17.31,0,0,0,298.9,5.2ZM205.9,0a22.44,22.44,0,0,1,19.5,11.3l-4.5,2.6a17.32,17.32,0,1,0-15,26,17.44,17.44,0,0,0,15-8.6l4.5,2.6A22.54,22.54,0,1,1,205.9,0ZM42.1,0h30V5.3H47.3V19.9H66.8v5.3H47.3V39.8H72.1v5.3h-30V0Zm81,0h15.8a15.81,15.81,0,0,1,8.7,29l12.1,16.1h-6.6L142.6,31.2l-14.3,4.4v9.6h-5.2V0ZM112.6,0V5.3H100.2V45.1H94.9V5.3H82.5V0Zm55,0h5.3V45h-5.3V0ZM128.4,5.2V29.9L142,25.8a10.47,10.47,0,0,0-3-20.5l-10.6-.1ZM5.3,5.2V29.9l13.6-4.1a10.47,10.47,0,0,0-3-20.5Z"/></svg>